<?xml version="1.0" encoding="utf-8"?>
<!-- Generator: Adobe Illustrator 22.1.0, SVG Export Plug-In . SVG Version: 6.00 Build 0)  -->
<svg version="1.1" id="Capa_1" xmlns="http://www.w3.org/2000/svg" xmlns:xlink="http://www.w3.org/1999/xlink" x="0px" y="0px"
	 viewBox="0 0 348.1 348.1" style="enable-background:new 0 0 348.1 348.1;" xml:space="preserve">
<style type="text/css">
	.st0{fill:#FFFFFF;}
</style>
<g>
	<g>
		<g>
			<path class="st0" d="M275.1,7.8l-53.8,53.8c-10.7,10.7-10.3,28.4,0.7,39.5l27.1,27.1c-0.9,1.7-1.9,3.5-3,5.3
				c-9.5,17.1-22.5,40.5-47.1,65.1c-24.7,24.7-48.1,37.7-65.3,47.2c-1.8,1-3.6,2-5.2,2.9l-18.1-18.2l-8.9-8.9
				c-11.1-11.1-28.8-11.4-39.5-0.7L8.2,274.7c-10.7,10.7-10.4,28.4,0.7,39.5l15.2,15.1l0.4-0.4c6.5,5.1,14,9.3,22,12.5
				c7.7,2.9,15,4.7,22.3,5.6c58.8,7.1,112.6-19.8,185.6-92.8C355.4,153.3,347.8,72,347.4,68.5c-0.9-7.6-2.7-15-5.6-22.4
				c-3.1-8-7.4-15.5-12.4-21.9l0.3-0.3l-15-15.3C303.5-2.6,285.8-2.9,275.1,7.8z"/>
		</g>
	</g>
</g>
</svg>
