<?xml version="1.0" encoding="utf-8"?>
<!-- Generator: Adobe Illustrator 22.1.0, SVG Export Plug-In . SVG Version: 6.00 Build 0)  -->
<svg version="1.1" xmlns="http://www.w3.org/2000/svg" xmlns:xlink="http://www.w3.org/1999/xlink" x="0px" y="0px"
	 viewBox="0 0 368 368" style="enable-background:new 0 0 368 368;" xml:space="preserve">
<style type="text/css">
	.st0{display:none;}
	.st1{display:inline;}
	.st2{stroke:#000000;stroke-miterlimit:10;}
	.st3{fill:#FFFFFF;stroke:#000000;stroke-miterlimit:10;}
</style>
<g id="Layer_2" class="st0">
	<ellipse class="st1" cx="183.5" cy="120.7" rx="51.8" ry="58.3"/>
	<path class="st1" d="M253.3,125.3c0,22.3,16.3,40.7,35.6,40.7c19.3,0,35.9-18.4,35.9-40.7S308.7,85,289.3,85
		C270,85,253.3,102,253.3,125.3z"/>
	<path class="st1" d="M43.4,125.1c0,22.3,13.9,39.6,35.4,40.8c19.5,1.1,36.1-17.7,36.1-41.2c0-22.3-17-40.4-36.5-40.4
		S43.4,102.8,43.4,125.1z"/>
	<path class="st1" d="M39.2,159.8C20,179,8.8,189.8,8.9,223.8c0,5.3-0.4,10.7,0.5,14.9c1,4.3,2.4,7.2,7,11.3
		c1.6,1.5,5.6,3.8,7.7,3.9l58.9,0c1.7,0.1,3.6-0.5,5-1.5c3.7-2.8,3.6-5.2,3.6-10.3c-0.1-20.4,9.1-44,17.9-56.1
		c8.1-11-1.6-20.1-7.9-17.4c-7.5,3.3-9.5,7.9-26.2,6.9c-13.4-0.8-21.7-9.1-29.2-15.9C45.1,158.6,40.5,158.4,39.2,159.8z"/>
	<path class="st1" d="M134.3,169.8c0.8-0.6,5-2.2,7.6,0.7c7.3,8,22.2,21.7,41.6,20.4c24.3-1.7,30.2-8.9,42.9-20.3
		c8-7.1,52.2,34.4,43.3,98.6c-0.6,4.5-8.2,16.1-17.1,16.1c-32.8,0-116.7,0.6-136.1,0.4c-5.4-0.1-10.8-3.9-13.1-6.5
		c-5.7-6.7-6.3-10.6-6.9-27c-0.6-17.7,2.9-32.3,8.6-44.9C113.2,189.6,122.8,178.6,134.3,169.8z"/>
	<path class="st1" d="M262,168.2c1.7-0.4,4.1,0,6.1,1.3c7.8,5,28.6,14.1,51.1-8.4c4.1-4.4,8.8-3.1,14.7,2.6
		c5.6,5.4,20.8,19.5,24.8,50.2c0.2,5.7,1.9,10.4,0,23.7c-2,14-15.6,16.9-15.6,16.9h-59.5c0,0-6.1-1.4-6.8-8.8
		c-3.4-33.8-4.9-38-18-58.8C251.3,174.8,255.7,169.7,262,168.2z"/>
</g>
<g id="Layer_5">
</g>
<g id="Layer_4">
	<g>
		<ellipse class="st2" cx="184" cy="186.7" rx="172.8" ry="168.7"/>
		<polygon class="st3" points="147.5,88.9 180,88.9 180,188.8 283.4,188.8 283.4,220.5 147.5,220.5 		"/>
	</g>
</g>
</svg>
