<?xml version="1.0" encoding="utf-8"?>
<!-- Generator: Adobe Illustrator 22.1.0, SVG Export Plug-In . SVG Version: 6.00 Build 0)  -->
<svg version="1.1" id="Capa_1" xmlns="http://www.w3.org/2000/svg" xmlns:xlink="http://www.w3.org/1999/xlink" x="0px" y="0px"
	 viewBox="0 0 473.8 473.8" style="enable-background:new 0 0 473.8 473.8;" xml:space="preserve">
<style type="text/css">
	.st0{fill:#FFFFFF;}
</style>
<g>
	<g>
		<path class="st0" d="M293.5,99.4c-10.1,9.7-15.5,21.4-15.5,33.8c0,12.3,5.3,24.1,15.4,34.2l31.5,31.6c-1.4,2.6-2.7,5.2-4,7.7
			c-1.8,3.6-3.5,7-5.3,9.9c-18.8,29.6-43.3,56.5-75,82.3c-15.8,12.5-29.1,20.9-42.6,27c-7.5-8.2-15.3-15.8-22.8-23.2
			c-2.8-2.8-5.7-5.6-8.5-8.4c-21-21-48.2-21-69.2,0l-27.3,27.3c-3.1,3.1-6.3,6.3-9.5,9.3c-6.2,6-12.6,12.3-18.6,18.8
			c-9.6,9.7-14.7,21.3-14.7,33.5c0,12.2,5.1,24,14.7,34c0.1,0.1,0.1,0.1,0.2,0.2l34.3,34c12.8,12.8,28.4,20.1,46.5,21.7
			c29.2,2.4,56.4-6.2,74.2-12.8c43.7-16.2,84.2-40.4,127.6-76.5c52.3-43.8,93.6-96.5,122.7-156.7c10.9-23,23.8-53.7,26-88
			c0.1-2.1,0.2-4.3,0.2-6.3c0-23.1-8.3-42.5-24.8-57.7c-0.2-0.1-0.3-0.3-0.5-0.4c-6.3-5.2-12-11.2-18.1-17.5
			c-4.1-4.3-8.4-8.7-12.9-13c-10.3-9.9-22.3-15.1-34.6-15.1c-12.4,0-24.3,5.3-34.3,15.4L293.5,99.4z M398.8,63.6
			C398.8,63.7,398.9,63.7,398.8,63.6c4.2,3.9,8,7.9,12.2,12.2c6.2,6.5,12.7,13.1,20,19.3c10.8,10.1,15.9,22,15.9,37.6
			c0,1.5,0,3.1-0.1,4.6c-1.9,29.7-13.5,57.3-23.4,78c-27.4,56.6-66.3,106.3-115.6,147.6c-41.1,34.1-79.1,56.9-119.9,72
			c-24.9,9.3-44.3,12.7-62.6,11.2c-11.7-1-21.4-5.5-29.7-13.8l-34.1-34.1c-4.6-4.9-7.1-10.1-7.1-15.2c0-6.3,3.8-11.4,7-14.6
			c0.1-0.1,0.2-0.2,0.3-0.3c5.7-6.1,11.6-11.9,17.9-18c3.2-3.1,6.4-6.3,9.7-9.5l27.3-27.3c10.6-10.6,20.4-10.6,31,0
			c2.9,2.9,5.8,5.7,8.6,8.6c8.6,8.4,16.6,16.4,24.4,25.1c0.2,0.2,0.3,0.4,0.5,0.5c8.6,8.6,17,7,22.7,5.2c0.3-0.1,0.6-0.2,0.9-0.3
			c17.2-7.1,33.4-17.1,52.7-32.3l0.1-0.1c34-27.6,60.5-56.7,80.8-88.8c2.6-4.1,4.7-8.3,6.7-12.3c1.8-3.6,3.5-7,5.3-9.9
			c0.2-0.4,0.5-0.8,0.7-1.2c1.7-3.4,2.5-6.6,2.5-9.9c0-8.3-5.2-13.5-6.9-15.2l-34.2-34.2c-3.4-3.4-7.5-8.8-7.5-15.1
			c0-6.2,3.9-11.3,7.3-14.4c0.1-0.1,0.1-0.1,0.2-0.2l55.1-55.1C377.7,53.4,388.2,53.4,398.8,63.6z"/>
		<path class="st0" d="M112.7,217.8c4.4-26.2,16.8-50,35.8-69s42.8-31.3,69-35.8c6.6-1.1,11.2-6.8,11.2-13.3c0-0.8-0.1-1.5-0.2-2.3
			c-1.2-7.4-8.2-12.3-15.6-11.1c-31.7,5.4-60.6,20.4-83.5,43.3s-37.9,51.8-43.3,83.5c-1.2,7.4,3.7,14.3,11,15.6
			S111.5,225.2,112.7,217.8z"/>
		<path class="st0" d="M209,0.6c-52.2,8.9-99.7,33.5-137.5,71.3S9.1,157.2,0.2,209.4c-1.3,7.3,3.7,14.2,11,15.5
			c7.4,1.2,14.3-3.7,15.6-11.1c7.9-46.6,30-89.1,63.7-122.9c33.8-33.8,76.3-55.8,122.9-63.7c6.6-1.1,11.2-6.8,11.2-13.3
			c0-0.8-0.1-1.5-0.2-2.3C223.3,4.3,216.3-0.7,209,0.6z"/>
	</g>
</g>
</svg>
