<?xml version="1.0" encoding="utf-8"?>
<!-- Generator: Adobe Illustrator 22.1.0, SVG Export Plug-In . SVG Version: 6.00 Build 0)  -->
<svg version="1.1" id="Capa_1" xmlns="http://www.w3.org/2000/svg" xmlns:xlink="http://www.w3.org/1999/xlink" x="0px" y="0px"
	 viewBox="0 0 512 512" style="enable-background:new 0 0 512 512;" xml:space="preserve">
<style type="text/css">
	.st0{fill:#FFFFFF;}
</style>
<g>
	<circle class="st0" cx="256" cy="256" r="247.5"/>
	<ellipse class="st0" cx="256" cy="256" rx="221.9" ry="247.5"/>
	<path class="st0" d="M34.1,256C34.1,119.3,133.5,8.5,256,8.5C119.3,8.5,8.5,119.3,8.5,256S119.3,503.5,256,503.5
		C133.5,503.5,34.1,392.7,34.1,256z"/>
	<path class="st0" d="M256,512C114.6,512,0,397.4,0,256S114.6,0,256,0s256,114.6,256,256C511.8,397.3,397.3,511.8,256,512z
		 M256,17.1C124,17.1,17.1,124,17.1,256S124,494.9,256,494.9S494.9,388,494.9,256C494.8,124.1,387.9,17.2,256,17.1z"/>
</g>
<g>
	<path d="M247.2,125.2l-80,80c-4.9,4.9-4.9,12.8,0,17.7c4.9,4.9,12.8,4.9,17.7,0l58.7-58.7v213.7c0,6.9,5.6,12.5,12.5,12.5
		c6.9,0,12.5-5.6,12.5-12.5V164.3l58.7,58.7c4.9,4.9,12.8,4.9,17.7,0c2.4-2.4,3.7-5.6,3.7-8.8s-1.2-6.4-3.7-8.8l-80-80
		C260,120.4,252,120.4,247.2,125.2z"/>
</g>
</svg>
