<?xml version="1.0" encoding="utf-8"?>
<!-- Generator: Adobe Illustrator 22.1.0, SVG Export Plug-In . SVG Version: 6.00 Build 0)  -->
<svg version="1.1" id="Capa_1" xmlns="http://www.w3.org/2000/svg" xmlns:xlink="http://www.w3.org/1999/xlink" x="0px" y="0px"
	 viewBox="0 0 512 512" style="enable-background:new 0 0 512 512;" xml:space="preserve">
<style type="text/css">
	.st0{fill:#FFFFFF;}
</style>
<g>
	<circle class="st0" cx="256" cy="256" r="247.5"/>
	<ellipse class="st0" cx="256" cy="256" rx="221.9" ry="247.5"/>
	<path class="st0" d="M34.1,256C34.1,119.3,133.5,8.5,256,8.5C119.3,8.5,8.5,119.3,8.5,256S119.3,503.5,256,503.5
		C133.5,503.5,34.1,392.7,34.1,256z"/>
	<path class="st0" d="M256,512C114.6,512,0,397.4,0,256S114.6,0,256,0s256,114.6,256,256C511.8,397.3,397.3,511.8,256,512z
		 M256,17.1C124,17.1,17.1,124,17.1,256S124,494.9,256,494.9S494.9,388,494.9,256C494.8,124.1,387.9,17.2,256,17.1z"/>
	<polygon class="st0" points="384,256 196.3,384 196.3,258.3 196.3,128 	"/>
	<path class="st0" d="M363,248.3c-14.4-23-58.3-43.8-81.6-59.6c-20.1-13.6-40.9-24.3-59.5-39.1v220.3c5.6-3.1,11-6.3,16.5-9.4
		c-1.8-4.2-0.2-9.1,3.7-11.4c3.5-1.6,7-2.9,10.7-3.8c1.5-0.4,3-0.4,4.5-0.1c16.2-16.2,34.2-30.5,53.8-42.4c0.5-0.2,1-0.4,1.5-0.5
		c0.6-0.6,1.3-1.2,2-1.6c11.4-6.7,23.1-12.7,34.9-18.4c-1.9-4.1-0.4-9,3.5-11.4c5.2-3.4,11-5.7,17.1-6.6c1-0.1,2-0.1,2.9,0
		c0.9-3.4,0.3-7.1-1.6-10.1C369.6,251,366.5,249,363,248.3z"/>
	<path d="M196.3,392.5c-4.7,0-8.5-3.8-8.5-8.5V128c0-3.2,1.8-6.1,4.5-7.5s6.2-1.3,8.8,0.5l187.7,128c2.3,1.6,3.7,4.2,3.7,7.1
		c0,2.8-1.4,5.5-3.7,7L201.1,391C199.7,392,198,392.5,196.3,392.5L196.3,392.5z M204.8,144.1v223.7L368.9,256L204.8,144.1z"/>
</g>
</svg>
